<?xml version="1.0" encoding="UTF-8"?>
<!-- Generator: Adobe Illustrator 13.0.0, SVG Export Plug-In  -->
<!DOCTYPE svg PUBLIC "-//W3C//DTD SVG 1.1//EN" "http://www.w3.org/Graphics/SVG/1.1/DTD/svg11.dtd" [
	<!ENTITY ns_flows "http://ns.adobe.com/Flows/1.0/">
]>
<svg version="1.1" xmlns="http://www.w3.org/2000/svg" xmlns:xlink="http://www.w3.org/1999/xlink" xmlns:a="http://ns.adobe.com/AdobeSVGViewerExtensions/3.0/" x="0px" y="0px" width="128px" height="128px" viewBox="-6.093 -8.636 128 128" enable-background="new -6.093 -8.636 128 128" xml:space="preserve">
<defs>
</defs>
<path opacity="0.5" d="M90.485,111.729c-1.381,0-2.701-0.429-3.822-1.242L58.408,89.957l-28.259,20.529  c-1.115,0.813-2.437,1.242-3.82,1.242c-1.379,0-2.701-0.43-3.822-1.242c-2.285-1.659-3.234-4.58-2.362-7.27L30.938,70L2.682,49.47  c-2.285-1.664-3.234-4.584-2.362-7.269c0.876-2.687,3.36-4.491,6.184-4.491h34.925L52.224,4.491C53.1,1.805,55.584,0,58.408,0  c2.823,0,5.308,1.805,6.183,4.491l10.795,33.218h34.926c2.824,0,5.311,1.804,6.183,4.491s-0.077,5.608-2.362,7.269L85.875,70.001  l10.791,33.218c0.874,2.686-0.075,5.606-2.364,7.268C93.19,111.299,91.869,111.729,90.485,111.729L90.485,111.729z"/>
<linearGradient id="SVGID_1_" gradientUnits="userSpaceOnUse" x1="-404.1763" y1="769.7861" x2="-290.3691" y2="769.7861" gradientTransform="matrix(1 0 0 1 404.6797 -714.9209)">
	<stop offset="0" style="stop-color:#CB0000"/>
	<stop offset="1" style="stop-color:#7C0000"/>
</linearGradient>
<path fill="url(#SVGID_1_)" d="M89.483,109.228c-1.029,0-2.062-0.318-2.938-0.955l-29.139-21.17l-29.14,21.17  c-0.875,0.639-1.908,0.957-2.938,0.957c-1.03,0-2.062-0.318-2.938-0.957c-1.752-1.271-2.486-3.529-1.817-5.59l11.13-34.258  L2.564,47.254c-1.752-1.273-2.486-3.532-1.816-5.591c0.67-2.062,2.588-3.455,4.755-3.455h36.017L52.651,3.955  C53.32,1.893,55.242,0.5,57.407,0.5c2.168,0,4.086,1.396,4.756,3.455l11.13,34.254h36.017c2.168,0,4.086,1.394,4.756,3.455  c0.67,2.059-0.063,4.317-1.815,5.591l-29.14,21.17l11.13,34.258c0.67,2.061-0.064,4.316-1.817,5.59  C91.547,108.909,90.516,109.228,89.483,109.228L89.483,109.228z"/>
<linearGradient id="SVGID_2_" gradientUnits="userSpaceOnUse" x1="-347.2729" y1="717.9209" x2="-347.273" y2="821.6465" gradientTransform="matrix(1 0 0 1 404.6797 -714.9209)">
	<stop offset="0.2802" style="stop-color:#FFFFCF"/>
	<stop offset="1" style="stop-color:#FFB300"/>
</linearGradient>
<path fill="url(#SVGID_2_)" d="M89.483,106.726c-0.516,0-1.029-0.16-1.467-0.477l-30.614-22.24l-30.606,22.236  c-0.437,0.32-0.953,0.48-1.469,0.48c-0.516,0-1.029-0.16-1.468-0.48c-0.878-0.635-1.245-1.764-0.91-2.793l11.693-35.984  L4.034,45.229c-0.878-0.636-1.245-1.765-0.909-2.794s1.294-1.728,2.378-1.728h37.835l11.69-35.981C55.363,3.698,56.323,3,57.406,3  s2.043,0.698,2.379,1.727l11.692,35.981h37.834c1.084,0,2.043,0.698,2.379,1.728c0.334,1.029-0.031,2.158-0.91,2.794L80.17,67.468  l11.691,35.984c0.337,1.029-0.03,2.158-0.908,2.793C90.514,106.565,89.999,106.726,89.483,106.726L89.483,106.726z"/>
<linearGradient id="SVGID_3_" gradientUnits="userSpaceOnUse" x1="-144.9336" y1="180.0352" x2="-144.9336" y2="87.1592" gradientTransform="matrix(1 0 0 -1 202.3398 188.7676)">
	<stop offset="0.1703" style="stop-color:#FFFFFF"/>
	<stop offset="0.61" style="stop-color:#FFC30B"/>
	<stop offset="1" style="stop-color:#FFFFFF"/>
</linearGradient>
<polygon fill="url(#SVGID_3_)" points="27.228,101.608 38.529,66.825 38.755,66.134 38.167,65.706 8.582,44.208 45.153,44.208   45.88,44.208 46.104,43.517 57.406,8.732 68.709,43.517 68.932,44.208 69.659,44.208 106.231,44.208 76.643,65.706 76.055,66.134   76.28,66.825 87.585,101.606 57.994,80.11 57.406,79.685 56.817,80.11 "/>
<linearGradient id="SVGID_4_" gradientUnits="userSpaceOnUse" x1="-144.9341" y1="183.2695" x2="-144.9341" y2="84.542" gradientTransform="matrix(1 0 0 -1 202.3398 188.7676)">
	<stop offset="0.1703" style="stop-color:#FFFFFF"/>
	<stop offset="0.61" style="stop-color:#FFA800"/>
	<stop offset="1" style="stop-color:#FFFFFF"/>
</linearGradient>
<path fill="url(#SVGID_4_)" d="M57.406,5.499l12.254,37.71h39.649L77.231,66.517l12.254,37.709L57.406,80.919l-32.078,23.307  l12.253-37.709L5.502,43.208h39.65L57.406,5.499 M57.406,11.971l-10.35,31.856l-0.449,1.382h-1.453H11.658l27.099,19.689  l1.175,0.854l-0.449,1.381L29.131,98.989L56.229,79.3l1.176-0.854l1.176,0.854L85.68,98.989L75.33,67.134l-0.449-1.383l1.177-0.854  l27.098-19.688H69.66h-1.453l-0.449-1.382L57.406,11.971L57.406,11.971z"/>
</svg>